<svg xmlns="http://www.w3.org/2000/svg" viewBox="0 0 1440 320" preserveAspectRatio="xMidYMax slice">
  <!-- Bakre lag: tåkete, lysere trær -->
  <g opacity="0.55">
    <path d="M100,120 L55,188 L145,188Z M100,168 L40,252 L160,252Z M100,222 L18,320 L182,320Z" fill="#1e3025"/>
    <path d="M260,148 L218,204 L302,204Z M260,192 L205,262 L315,262Z M260,244 L185,320 L335,320Z" fill="#1e3025"/>
    <path d="M430,108 L382,182 L478,182Z M430,172 L368,256 L492,256Z M430,234 L352,320 L508,320Z" fill="#1e3025"/>
    <path d="M610,138 L565,206 L655,206Z M610,196 L550,270 L670,270Z M610,248 L532,320 L688,320Z" fill="#1e3025"/>
    <path d="M800,98 L748,176 L852,176Z M800,166 L732,258 L868,258Z M800,238 L718,320 L882,320Z" fill="#1e3025"/>
    <path d="M990,143 L946,211 L1034,211Z M990,201 L933,275 L1047,275Z M990,254 L913,320 L1067,320Z" fill="#1e3025"/>
    <path d="M1170,123 L1121,196 L1219,196Z M1170,186 L1106,267 L1234,267Z M1170,244 L1086,320 L1254,320Z" fill="#1e3025"/>
    <path d="M1350,153 L1308,218 L1392,218Z M1350,208 L1293,278 L1407,278Z M1350,260 L1275,320 L1425,320Z" fill="#1e3025"/>
  </g>
  <!-- Fremre lag: mørkere, tydeligere trær -->
  <g opacity="0.85">
    <path d="M30,178 L-5,232 L65,232Z M30,222 L-18,282 L78,282Z M30,264 L-32,320 L92,320Z" fill="#0d1a10"/>
    <path d="M185,185 L150,242 L220,242Z M185,232 L140,285 L230,285Z M185,270 L130,320 L240,320Z" fill="#0d1a10"/>
    <path d="M355,158 L316,218 L394,218Z M355,208 L305,272 L405,272Z M355,258 L298,320 L412,320Z" fill="#0d1a10"/>
    <path d="M525,172 L488,228 L562,228Z M525,218 L478,276 L572,276Z M525,264 L472,320 L578,320Z" fill="#0d1a10"/>
    <path d="M700,148 L658,210 L742,210Z M700,200 L645,268 L755,268Z M700,256 L638,320 L762,320Z" fill="#0d1a10"/>
    <path d="M885,162 L846,222 L924,222Z M885,212 L834,274 L936,274Z M885,262 L826,320 L944,320Z" fill="#0d1a10"/>
    <path d="M1065,172 L1028,228 L1102,228Z M1065,218 L1014,278 L1116,278Z M1065,264 L1008,320 L1122,320Z" fill="#0d1a10"/>
    <path d="M1245,158 L1206,218 L1284,218Z M1245,208 L1194,272 L1296,272Z M1245,258 L1188,320 L1302,320Z" fill="#0d1a10"/>
    <path d="M1415,175 L1378,230 L1452,230Z M1415,220 L1370,278 L1460,278Z M1415,262 L1366,320 L1464,320Z" fill="#0d1a10"/>
  </g>
</svg>
