<svg width="379" height="406" viewBox="0 0 379 406" fill="none" xmlns="http://www.w3.org/2000/svg">
<path d="M9.98047 22V4.96094H11.668V22H9.98047ZM11.1523 14.4766V12.9062H19.4141V14.4766H11.1523ZM11.1523 6.53125V4.96094H20.7031V6.53125H11.1523ZM30.6289 22V14.2891C30.6289 13.3047 30.3633 12.543 29.832 12.0039C29.3086 11.457 28.5625 11.1836 27.5938 11.1836C27.0234 11.1836 26.4609 11.2773 25.9062 11.4648C25.3516 11.6523 24.8555 11.918 24.418 12.2617L23.1875 11.418C23.6484 10.8633 24.2539 10.4336 25.0039 10.1289C25.7617 9.81641 26.6016 9.66016 27.5234 9.66016C29.0469 9.66016 30.2266 10.0547 31.0625 10.8438C31.8984 11.6328 32.3164 12.7461 32.3164 14.1836V22H30.6289ZM27.0664 22.1758C25.6445 22.1758 24.543 21.8477 23.7617 21.1914C22.9805 20.5352 22.5898 19.6094 22.5898 18.4141C22.5898 17.2656 22.9492 16.3789 23.668 15.7539C24.3867 15.1211 25.3945 14.8047 26.6914 14.8047H30.7344L30.8984 16.375H26.7031C25.9219 16.375 25.3164 16.5547 24.8867 16.9141C24.4648 17.2656 24.2539 17.7656 24.2539 18.4141C24.2539 19.1016 24.5195 19.6367 25.0508 20.0195C25.5898 20.3945 26.3477 20.582 27.3242 20.582C28.3711 20.582 29.1836 20.4766 29.7617 20.2656C30.3398 20.0547 30.6289 19.7578 30.6289 19.375L30.875 20.9688C30.6328 21.2266 30.3203 21.4453 29.9375 21.625C29.5625 21.8047 29.1328 21.9414 28.6484 22.0352C28.1641 22.1289 27.6367 22.1758 27.0664 22.1758ZM35.9492 22V9.83594H37.6367V22H35.9492ZM43.1094 12.0156C42.8594 11.7578 42.543 11.5625 42.1602 11.4297C41.7852 11.2969 41.3477 11.2305 40.8477 11.2305C39.8242 11.2305 39.0312 11.5039 38.4688 12.0508C37.9141 12.5977 37.6367 13.3477 37.6367 14.3008L37.3906 11.957C37.8359 11.2383 38.418 10.6758 39.1367 10.2695C39.8555 9.86328 40.6484 9.66016 41.5156 9.66016C42.0703 9.66016 42.5703 9.74219 43.0156 9.90625C43.4688 10.0625 43.8633 10.2969 44.1992 10.6094L43.1094 12.0156ZM50.0352 26.9453C49.1133 26.9453 48.293 26.7734 47.5742 26.4297C46.8555 26.0938 46.2969 25.6172 45.8984 25L47.0469 23.9688C47.4141 24.4453 47.8555 24.8125 48.3711 25.0703C48.8867 25.3359 49.4297 25.4688 50 25.4688C51.1406 25.4688 52.0195 25.1523 52.6367 24.5195C53.2617 23.8945 53.5742 23.0117 53.5742 21.8711V9.83594H55.2617V21.6367C55.2617 23.3242 54.8047 24.6289 53.8906 25.5508C52.9844 26.4805 51.6992 26.9453 50.0352 26.9453ZM49.8125 22.1758C48.4766 22.1758 47.4414 21.7461 46.707 20.8867C45.9727 20.0273 45.6055 18.8203 45.6055 17.2656V14.6172C45.6055 13.0391 45.9609 11.8203 46.6719 10.9609C47.3906 10.0938 48.3984 9.66016 49.6953 9.66016C50.5703 9.66016 51.3672 9.82422 52.0859 10.1523C52.8047 10.4805 53.3828 11.0586 53.8203 11.8867L53.5742 14.2305C53.5742 13.707 53.4531 13.2109 53.2109 12.7422C52.9688 12.2656 52.6172 11.875 52.1562 11.5703C51.6953 11.2656 51.1367 11.1133 50.4805 11.1133C49.4648 11.1133 48.6797 11.4219 48.125 12.0391C47.5703 12.6484 47.293 13.5117 47.293 14.6289V17.2656C47.293 18.3594 47.5703 19.2109 48.125 19.8203C48.6797 20.4219 49.4648 20.7227 50.4805 20.7227C51.1367 20.7227 51.6953 20.5664 52.1562 20.2539C52.6172 19.9414 52.9688 19.543 53.2109 19.0586C53.4531 18.5664 53.5742 18.0625 53.5742 17.5469L53.7383 20.0898C53.418 20.8711 52.9141 21.4141 52.2266 21.7188C51.5469 22.0234 50.7422 22.1758 49.8125 22.1758ZM63.875 22.1758C62.1797 22.1758 60.8672 21.7031 59.9375 20.7578C59.0078 19.8047 58.543 18.4609 58.543 16.7266V15.3555C58.543 13.543 58.9883 12.1406 59.8789 11.1484C60.7773 10.1562 62.0391 9.66016 63.6641 9.66016C65.1953 9.66016 66.3789 10.1484 67.2148 11.125C68.0586 12.1016 68.4805 13.4805 68.4805 15.2617V16.6562H59.6914V15.1328H66.9102V15.0156C66.9102 13.8125 66.625 12.8828 66.0547 12.2266C65.4922 11.5625 64.6953 11.2305 63.6641 11.2305C62.5312 11.2305 61.6562 11.5781 61.0391 12.2734C60.4219 12.9688 60.1133 13.9531 60.1133 15.2266V16.7734C60.1133 17.9922 60.4414 18.9375 61.0977 19.6094C61.7539 20.2734 62.6797 20.6055 63.875 20.6055C64.4375 20.6055 64.9922 20.4883 65.5391 20.2539C66.0938 20.0195 66.5859 19.6875 67.0156 19.2578L68.1641 20.3594C67.5703 20.9375 66.8984 21.3867 66.1484 21.707C65.3984 22.0195 64.6406 22.1758 63.875 22.1758ZM71.7617 22V9.83594H73.4492V22H71.7617ZM78.9219 12.0156C78.6719 11.7578 78.3555 11.5625 77.9727 11.4297C77.5977 11.2969 77.1602 11.2305 76.6602 11.2305C75.6367 11.2305 74.8438 11.5039 74.2812 12.0508C73.7266 12.5977 73.4492 13.3477 73.4492 14.3008L73.2031 11.957C73.6484 11.2383 74.2305 10.6758 74.9492 10.2695C75.668 9.86328 76.4609 9.66016 77.3281 9.66016C77.8828 9.66016 78.3828 9.74219 78.8281 9.90625C79.2812 10.0625 79.6758 10.2969 80.0117 10.6094L78.9219 12.0156Z" fill="#0C098C"/>
<path d="M94.041 82V67.8008H95.4473V82H94.041ZM95.0176 75.7305V74.4219H101.902V75.7305H95.0176ZM95.0176 69.1094V67.8008H102.977V69.1094H95.0176ZM104.744 79.8223V78.6797L109.51 67.8105H110.975L106.326 78.5625H113.875V79.8223H104.744ZM111.16 82.0098V73.6504H112.518V82.0098H111.16ZM117.791 82V80.6914H121.688C122.944 80.6914 123.833 80.4538 124.354 79.9785C124.881 79.5033 125.145 78.8783 125.145 78.1035V78.0645C125.145 77.2441 124.913 76.5898 124.451 76.1016C123.995 75.6133 123.237 75.3691 122.176 75.3691H117.791V74.0605H122.176C123.1 74.0605 123.794 73.8555 124.256 73.4453C124.725 73.0352 124.959 72.4264 124.959 71.6191C124.959 70.7793 124.705 70.151 124.197 69.7344C123.689 69.3177 122.924 69.1094 121.902 69.1094H117.791V67.8008H122.215C123.615 67.8008 124.656 68.1491 125.34 68.8457C126.023 69.5423 126.365 70.4766 126.365 71.6484C126.365 72.3385 126.157 72.9831 125.74 73.582C125.33 74.181 124.676 74.5618 123.777 74.7246C124.656 74.8548 125.337 75.2422 125.818 75.8867C126.307 76.5312 126.551 77.2702 126.551 78.1035V78.1328C126.551 79.2917 126.176 80.2259 125.428 80.9355C124.679 81.6452 123.663 82 122.381 82H117.791ZM116.619 82V67.8008H118.025V82H116.619ZM133.396 82.1465C132.485 82.1465 131.707 81.9935 131.062 81.6875C130.424 81.3815 129.936 80.9388 129.598 80.3594C129.259 79.7799 129.09 79.0768 129.09 78.25V78.1133C129.09 77.3581 129.259 76.681 129.598 76.082C129.943 75.4831 130.424 75.0143 131.043 74.6758C130.516 74.3568 130.105 73.9271 129.812 73.3867C129.526 72.8464 129.383 72.2441 129.383 71.5801V71.4336C129.383 70.2292 129.731 69.2982 130.428 68.6406C131.131 67.9831 132.12 67.6543 133.396 67.6543C134.673 67.6543 135.659 67.9831 136.355 68.6406C137.059 69.2982 137.41 70.2292 137.41 71.4336V71.5801C137.41 72.2637 137.264 72.8757 136.971 73.416C136.678 73.9499 136.261 74.3698 135.721 74.6758C136.352 75.0143 136.84 75.4831 137.186 76.082C137.531 76.681 137.703 77.3581 137.703 78.1133V78.25C137.703 79.0768 137.534 79.7799 137.195 80.3594C136.857 80.9388 136.365 81.3815 135.721 81.6875C135.083 81.9935 134.308 82.1465 133.396 82.1465ZM133.396 80.8672C134.308 80.8672 135.011 80.6328 135.506 80.1641C136.007 79.6888 136.258 79.0182 136.258 78.1523V78.1133C136.258 77.2474 136.007 76.5768 135.506 76.1016C135.011 75.6263 134.308 75.3887 133.396 75.3887C132.492 75.3887 131.788 75.6263 131.287 76.1016C130.786 76.5768 130.535 77.2507 130.535 78.123V78.1719C130.535 79.0247 130.786 79.6888 131.287 80.1641C131.788 80.6328 132.492 80.8672 133.396 80.8672ZM133.396 74.1582C134.243 74.1582 134.897 73.9303 135.359 73.4746C135.822 73.0124 136.053 72.3613 136.053 71.5215V71.3848C136.053 70.6035 135.822 70.0013 135.359 69.5781C134.897 69.1484 134.243 68.9336 133.396 68.9336C132.55 68.9336 131.896 69.1484 131.434 69.5781C130.971 70.0078 130.74 70.6133 130.74 71.3945V71.541C130.74 72.3678 130.971 73.0124 131.434 73.4746C131.896 73.9303 132.55 74.1582 133.396 74.1582ZM144.539 82.1465C143.185 82.1465 142.169 81.7852 141.492 81.0625C140.822 80.3333 140.486 79.3503 140.486 78.1133V71.6582C140.486 70.4017 140.828 69.4154 141.512 68.6992C142.195 67.9831 143.204 67.625 144.539 67.625C145.88 67.625 146.889 67.9831 147.566 68.6992C148.25 69.4089 148.592 70.3952 148.592 71.6582V78.1133C148.592 79.3698 148.25 80.3561 147.566 81.0723C146.889 81.7884 145.88 82.1465 144.539 82.1465ZM144.539 80.8379C145.47 80.8379 146.144 80.597 146.561 80.1152C146.977 79.627 147.186 78.9596 147.186 78.1133V71.6582C147.186 70.8053 146.977 70.138 146.561 69.6562C146.144 69.1745 145.47 68.9336 144.539 68.9336C143.608 68.9336 142.934 69.1745 142.518 69.6562C142.101 70.138 141.893 70.8053 141.893 71.6582V78.1133C141.893 78.9596 142.101 79.627 142.518 80.1152C142.934 80.597 143.608 80.8379 144.539 80.8379ZM154.949 67.8008V82H153.543V68.9922L150.936 70.623V69.1484L152.957 67.8008H154.949Z" fill="black"/>
<path d="M92.1953 157V142.801H93.6016V157H92.1953ZM93.1719 150.73V149.422H100.057V150.73H93.1719ZM93.1719 144.109V142.801H101.131V144.109H93.1719ZM103.582 157V142.801H104.988V157H103.582ZM104.559 150.73V149.422H111.443V150.73H104.559ZM104.559 144.109V142.801H112.518V144.109H104.559ZM114.969 157V142.801H116.375V157H114.969ZM115.945 150.73V149.422H122.83V150.73H115.945ZM115.945 144.109V142.801H123.904V144.109H115.945ZM126.355 157V142.801H127.762V157H126.355ZM127.332 150.73V149.422H134.217V150.73H127.332ZM127.332 144.109V142.801H135.291V144.109H127.332ZM137.742 157V142.801H139.148V157H137.742ZM138.719 150.73V149.422H145.604V150.73H138.719ZM138.719 144.109V142.801H146.678V144.109H138.719ZM149.129 157V142.801H150.535V157H149.129ZM150.105 150.73V149.422H156.99V150.73H150.105ZM150.105 144.109V142.801H158.064V144.109H150.105Z" fill="black"/>
<path d="M96.2285 232.146C94.8743 232.146 93.8587 231.785 93.1816 231.062C92.5111 230.333 92.1758 229.35 92.1758 228.113V221.658C92.1758 220.402 92.5176 219.415 93.2012 218.699C93.8848 217.983 94.8939 217.625 96.2285 217.625C97.5697 217.625 98.5788 217.983 99.2559 218.699C99.9395 219.409 100.281 220.395 100.281 221.658V228.113C100.281 229.37 99.9395 230.356 99.2559 231.072C98.5788 231.788 97.5697 232.146 96.2285 232.146ZM96.2285 230.838C97.1595 230.838 97.8333 230.597 98.25 230.115C98.6667 229.627 98.875 228.96 98.875 228.113V221.658C98.875 220.805 98.6667 220.138 98.25 219.656C97.8333 219.174 97.1595 218.934 96.2285 218.934C95.2975 218.934 94.6237 219.174 94.207 219.656C93.7904 220.138 93.582 220.805 93.582 221.658V228.113C93.582 228.96 93.7904 229.627 94.207 230.115C94.6237 230.597 95.2975 230.838 96.2285 230.838ZM107.762 232.146C106.772 232.146 105.906 231.928 105.164 231.492C104.422 231.049 103.846 230.431 103.436 229.637C103.025 228.842 102.82 227.915 102.82 226.854V222.957C102.82 221.889 103.025 220.958 103.436 220.164C103.846 219.37 104.422 218.755 105.164 218.318C105.906 217.876 106.772 217.654 107.762 217.654C108.582 217.654 109.331 217.824 110.008 218.162C110.691 218.494 111.261 218.963 111.717 219.568C112.179 220.167 112.492 220.87 112.654 221.678H111.248C111.092 221.131 110.835 220.656 110.477 220.252C110.118 219.842 109.702 219.526 109.227 219.305C108.758 219.077 108.27 218.963 107.762 218.963C106.701 218.963 105.844 219.327 105.193 220.057C104.549 220.786 104.227 221.753 104.227 222.957V226.854C104.227 228.051 104.549 229.015 105.193 229.744C105.844 230.473 106.701 230.838 107.762 230.838C108.517 230.838 109.227 230.604 109.891 230.135C110.555 229.66 111.007 228.989 111.248 228.123H112.654C112.492 228.93 112.179 229.637 111.717 230.242C111.255 230.841 110.685 231.31 110.008 231.648C109.331 231.98 108.582 232.146 107.762 232.146ZM118.865 232.146C117.511 232.146 116.495 231.785 115.818 231.062C115.148 230.333 114.812 229.35 114.812 228.113V221.658C114.812 220.402 115.154 219.415 115.838 218.699C116.521 217.983 117.531 217.625 118.865 217.625C120.206 217.625 121.215 217.983 121.893 218.699C122.576 219.409 122.918 220.395 122.918 221.658V228.113C122.918 229.37 122.576 230.356 121.893 231.072C121.215 231.788 120.206 232.146 118.865 232.146ZM118.865 230.838C119.796 230.838 120.47 230.597 120.887 230.115C121.303 229.627 121.512 228.96 121.512 228.113V221.658C121.512 220.805 121.303 220.138 120.887 219.656C120.47 219.174 119.796 218.934 118.865 218.934C117.934 218.934 117.26 219.174 116.844 219.656C116.427 220.138 116.219 220.805 116.219 221.658V228.113C116.219 228.96 116.427 229.627 116.844 230.115C117.26 230.597 117.934 230.838 118.865 230.838ZM127.889 232L131.463 224.949L131.453 225.301C131.303 225.607 131.023 225.828 130.613 225.965C130.21 226.102 129.757 226.17 129.256 226.17C128.143 226.17 127.247 225.792 126.57 225.037C125.893 224.275 125.555 223.266 125.555 222.01V222C125.555 220.62 125.9 219.552 126.59 218.797C127.286 218.035 128.263 217.654 129.52 217.654C130.776 217.654 131.749 218.038 132.439 218.807C133.13 219.568 133.475 220.649 133.475 222.049V222.059C133.475 222.638 133.39 223.266 133.221 223.943C133.051 224.614 132.804 225.271 132.479 225.916L129.451 232H127.889ZM129.52 224.842C130.333 224.842 130.962 224.588 131.404 224.08C131.847 223.572 132.068 222.856 132.068 221.932V221.922C132.068 220.991 131.847 220.268 131.404 219.754C130.962 219.24 130.333 218.982 129.52 218.982C128.706 218.982 128.074 219.24 127.625 219.754C127.182 220.268 126.961 220.994 126.961 221.932V221.941C126.961 222.866 127.182 223.582 127.625 224.09C128.074 224.591 128.706 224.842 129.52 224.842ZM140.281 232.146C139.37 232.146 138.592 231.993 137.947 231.688C137.309 231.382 136.821 230.939 136.482 230.359C136.144 229.78 135.975 229.077 135.975 228.25V228.113C135.975 227.358 136.144 226.681 136.482 226.082C136.827 225.483 137.309 225.014 137.928 224.676C137.4 224.357 136.99 223.927 136.697 223.387C136.411 222.846 136.268 222.244 136.268 221.58V221.434C136.268 220.229 136.616 219.298 137.312 218.641C138.016 217.983 139.005 217.654 140.281 217.654C141.557 217.654 142.544 217.983 143.24 218.641C143.943 219.298 144.295 220.229 144.295 221.434V221.58C144.295 222.264 144.148 222.876 143.855 223.416C143.562 223.95 143.146 224.37 142.605 224.676C143.237 225.014 143.725 225.483 144.07 226.082C144.415 226.681 144.588 227.358 144.588 228.113V228.25C144.588 229.077 144.419 229.78 144.08 230.359C143.742 230.939 143.25 231.382 142.605 231.688C141.967 231.993 141.193 232.146 140.281 232.146ZM140.281 230.867C141.193 230.867 141.896 230.633 142.391 230.164C142.892 229.689 143.143 229.018 143.143 228.152V228.113C143.143 227.247 142.892 226.577 142.391 226.102C141.896 225.626 141.193 225.389 140.281 225.389C139.376 225.389 138.673 225.626 138.172 226.102C137.671 226.577 137.42 227.251 137.42 228.123V228.172C137.42 229.025 137.671 229.689 138.172 230.164C138.673 230.633 139.376 230.867 140.281 230.867ZM140.281 224.158C141.128 224.158 141.782 223.93 142.244 223.475C142.706 223.012 142.938 222.361 142.938 221.521V221.385C142.938 220.604 142.706 220.001 142.244 219.578C141.782 219.148 141.128 218.934 140.281 218.934C139.435 218.934 138.781 219.148 138.318 219.578C137.856 220.008 137.625 220.613 137.625 221.395V221.541C137.625 222.368 137.856 223.012 138.318 223.475C138.781 223.93 139.435 224.158 140.281 224.158ZM152.312 232.146C151.323 232.146 150.457 231.928 149.715 231.492C148.973 231.049 148.396 230.431 147.986 229.637C147.576 228.842 147.371 227.915 147.371 226.854V222.957C147.371 221.889 147.576 220.958 147.986 220.164C148.396 219.37 148.973 218.755 149.715 218.318C150.457 217.876 151.323 217.654 152.312 217.654C153.133 217.654 153.882 217.824 154.559 218.162C155.242 218.494 155.812 218.963 156.268 219.568C156.73 220.167 157.042 220.87 157.205 221.678H155.799C155.643 221.131 155.385 220.656 155.027 220.252C154.669 219.842 154.253 219.526 153.777 219.305C153.309 219.077 152.82 218.963 152.312 218.963C151.251 218.963 150.395 219.327 149.744 220.057C149.1 220.786 148.777 221.753 148.777 222.957V226.854C148.777 228.051 149.1 229.015 149.744 229.744C150.395 230.473 151.251 230.838 152.312 230.838C153.068 230.838 153.777 230.604 154.441 230.135C155.105 229.66 155.558 228.989 155.799 228.123H157.205C157.042 228.93 156.73 229.637 156.268 230.242C155.805 230.841 155.236 231.31 154.559 231.648C153.882 231.98 153.133 232.146 152.312 232.146Z" fill="black"/>
<path d="M91.5117 301V286.801H92.918V301H91.5117ZM92.4883 294.73V293.422H99.373V294.73H92.4883ZM92.4883 288.109V286.801H100.447V288.109H92.4883ZM100.359 301L105.594 286.801H107.293L112.527 301H110.965L106.443 288.275L101.922 301H100.359ZM102.771 297.553V296.244H110.242V297.553H102.771ZM114.676 301V286.801H116.082V301H114.676ZM115.652 294.73V293.422H122.537V294.73H115.652ZM115.652 288.109V286.801H123.611V288.109H115.652ZM123.523 301L128.758 286.801H130.457L135.691 301H134.129L129.607 288.275L125.086 301H123.523ZM125.936 297.553V296.244H133.406V297.553H125.936ZM137.84 301V286.801H139.246V301H137.84ZM138.816 294.73V293.422H145.701V294.73H138.816ZM138.816 288.109V286.801H146.775V288.109H138.816ZM146.688 301L151.922 286.801H153.621L158.855 301H157.293L152.771 288.275L148.25 301H146.688ZM149.1 297.553V296.244H156.57V297.553H149.1Z" fill="black"/>
<path d="M90.1348 382V367.801H91.541V382H90.1348ZM91.1113 375.73V374.422H97.9961V375.73H91.1113ZM91.1113 369.109V367.801H99.0703V369.109H91.1113ZM101.521 382V367.801H102.928V382H101.521ZM102.498 375.73V374.422H109.383V375.73H102.498ZM102.498 369.109V367.801H110.457V369.109H102.498ZM112.908 382V367.801H114.314V382H112.908ZM113.875 382V380.691H122.029V382H113.875ZM113.875 375.604V374.295H120.955V375.604H113.875ZM113.875 369.109V367.801H122.029V369.109H113.875ZM126.033 382V380.691H129.93C131.186 380.691 132.075 380.454 132.596 379.979C133.123 379.503 133.387 378.878 133.387 378.104V378.064C133.387 377.244 133.156 376.59 132.693 376.102C132.238 375.613 131.479 375.369 130.418 375.369H126.033V374.061H130.418C131.342 374.061 132.036 373.855 132.498 373.445C132.967 373.035 133.201 372.426 133.201 371.619C133.201 370.779 132.947 370.151 132.439 369.734C131.932 369.318 131.167 369.109 130.145 369.109H126.033V367.801H130.457C131.857 367.801 132.898 368.149 133.582 368.846C134.266 369.542 134.607 370.477 134.607 371.648C134.607 372.339 134.399 372.983 133.982 373.582C133.572 374.181 132.918 374.562 132.02 374.725C132.898 374.855 133.579 375.242 134.061 375.887C134.549 376.531 134.793 377.27 134.793 378.104V378.133C134.793 379.292 134.419 380.226 133.67 380.936C132.921 381.645 131.906 382 130.623 382H126.033ZM124.861 382V367.801H126.268V382H124.861ZM136.111 382L141.346 367.801H143.045L148.279 382H146.717L142.195 369.275L137.674 382H136.111ZM138.523 378.553V377.244H145.994V378.553H138.523ZM150.428 382V367.801H151.834V382H150.428ZM151.395 382V380.691H159.549V382H151.395ZM151.395 375.604V374.295H158.475V375.604H151.395ZM151.395 369.109V367.801H159.549V369.109H151.395Z" fill="black"/>
<path d="M316.836 142.801V143.992L313.164 157H311.631L315.371 144.109H310.518V146.736H309.111V142.801H316.836ZM323.252 157.146C322.451 157.146 321.748 157.007 321.143 156.727C320.544 156.447 320.062 156.04 319.697 155.506C319.333 154.972 319.098 154.324 318.994 153.562H320.41C320.527 154.279 320.833 154.835 321.328 155.232C321.823 155.623 322.464 155.818 323.252 155.818C324.105 155.818 324.762 155.594 325.225 155.145C325.687 154.689 325.918 154.048 325.918 153.221V152.791C325.918 151.99 325.693 151.372 325.244 150.936C324.795 150.493 324.163 150.271 323.35 150.271H322.344V148.963H323.35C324.092 148.963 324.665 148.771 325.068 148.387C325.479 148.003 325.684 147.462 325.684 146.766V146.326C325.684 145.577 325.469 145.001 325.039 144.598C324.616 144.188 324.017 143.982 323.242 143.982C322.585 143.982 322.028 144.171 321.572 144.549C321.117 144.92 320.804 145.447 320.635 146.131H319.229C319.43 145.024 319.88 144.168 320.576 143.562C321.279 142.957 322.168 142.654 323.242 142.654C324.466 142.654 325.413 142.977 326.084 143.621C326.755 144.266 327.09 145.174 327.09 146.346V146.775C327.09 147.439 326.93 148.019 326.611 148.514C326.299 149.002 325.853 149.36 325.273 149.588C325.924 149.744 326.429 150.102 326.787 150.662C327.145 151.222 327.324 151.935 327.324 152.801V153.23C327.324 154.474 326.969 155.438 326.26 156.121C325.55 156.805 324.548 157.146 323.252 157.146ZM331.631 157V155.691H335.527C336.784 155.691 337.673 155.454 338.193 154.979C338.721 154.503 338.984 153.878 338.984 153.104V153.064C338.984 152.244 338.753 151.59 338.291 151.102C337.835 150.613 337.077 150.369 336.016 150.369H331.631V149.061H336.016C336.94 149.061 337.633 148.855 338.096 148.445C338.564 148.035 338.799 147.426 338.799 146.619C338.799 145.779 338.545 145.151 338.037 144.734C337.529 144.318 336.764 144.109 335.742 144.109H331.631V142.801H336.055C337.454 142.801 338.496 143.149 339.18 143.846C339.863 144.542 340.205 145.477 340.205 146.648C340.205 147.339 339.997 147.983 339.58 148.582C339.17 149.181 338.516 149.562 337.617 149.725C338.496 149.855 339.176 150.242 339.658 150.887C340.146 151.531 340.391 152.27 340.391 153.104V153.133C340.391 154.292 340.016 155.226 339.268 155.936C338.519 156.645 337.503 157 336.221 157H331.631ZM330.459 157V142.801H331.865V157H330.459ZM342.881 154.822V153.68L347.646 142.811H349.111L344.463 153.562H352.012V154.822H342.881ZM349.297 157.01V148.65H350.654V157.01H349.297ZM358.516 157.146C357.161 157.146 356.146 156.785 355.469 156.062C354.798 155.333 354.463 154.35 354.463 153.113V146.658C354.463 145.402 354.805 144.415 355.488 143.699C356.172 142.983 357.181 142.625 358.516 142.625C359.857 142.625 360.866 142.983 361.543 143.699C362.227 144.409 362.568 145.395 362.568 146.658V153.113C362.568 154.37 362.227 155.356 361.543 156.072C360.866 156.788 359.857 157.146 358.516 157.146ZM358.516 155.838C359.447 155.838 360.12 155.597 360.537 155.115C360.954 154.627 361.162 153.96 361.162 153.113V146.658C361.162 145.805 360.954 145.138 360.537 144.656C360.12 144.174 359.447 143.934 358.516 143.934C357.585 143.934 356.911 144.174 356.494 144.656C356.077 145.138 355.869 145.805 355.869 146.658V153.113C355.869 153.96 356.077 154.627 356.494 155.115C356.911 155.597 357.585 155.838 358.516 155.838ZM366.943 157V155.691H370.156C371.471 155.691 372.454 155.385 373.105 154.773C373.763 154.155 374.092 153.227 374.092 151.99V147.811C374.092 146.574 373.763 145.649 373.105 145.037C372.454 144.419 371.471 144.109 370.156 144.109H366.943V142.801H370.098C371.908 142.801 373.258 143.224 374.15 144.07C375.049 144.917 375.498 146.189 375.498 147.889V151.912C375.498 153.045 375.296 153.989 374.893 154.744C374.495 155.493 373.896 156.056 373.096 156.434C372.295 156.811 371.292 157 370.088 157H366.943ZM365.596 157V142.801H367.002V157H365.596Z" fill="black"/>
<path d="M311.916 82.1465C310.926 82.1465 310.061 81.9284 309.318 81.4922C308.576 81.0495 308 80.431 307.59 79.6367C307.18 78.8424 306.975 77.9147 306.975 76.8535V72.957C306.975 71.8893 307.18 70.9583 307.59 70.1641C308 69.3698 308.576 68.7546 309.318 68.3184C310.061 67.8757 310.926 67.6543 311.916 67.6543C312.736 67.6543 313.485 67.8236 314.162 68.1621C314.846 68.4941 315.415 68.9629 315.871 69.5684C316.333 70.1673 316.646 70.8704 316.809 71.6777H315.402C315.246 71.1309 314.989 70.6556 314.631 70.252C314.273 69.8418 313.856 69.526 313.381 69.3047C312.912 69.0768 312.424 68.9629 311.916 68.9629C310.855 68.9629 309.999 69.3275 309.348 70.0566C308.703 70.7858 308.381 71.7526 308.381 72.957V76.8535C308.381 78.0514 308.703 79.015 309.348 79.7441C309.999 80.4733 310.855 80.8379 311.916 80.8379C312.671 80.8379 313.381 80.6035 314.045 80.1348C314.709 79.6595 315.161 78.9889 315.402 78.123H316.809C316.646 78.9303 316.333 79.6367 315.871 80.2422C315.409 80.8411 314.839 81.3099 314.162 81.6484C313.485 81.9805 312.736 82.1465 311.916 82.1465ZM320.803 82V80.6914H324.016C325.331 80.6914 326.314 80.3854 326.965 79.7734C327.622 79.1549 327.951 78.2272 327.951 76.9902V72.8105C327.951 71.5736 327.622 70.6491 326.965 70.0371C326.314 69.4186 325.331 69.1094 324.016 69.1094H320.803V67.8008H323.957C325.767 67.8008 327.118 68.224 328.01 69.0703C328.908 69.9167 329.357 71.1895 329.357 72.8887V76.9121C329.357 78.0449 329.156 78.9889 328.752 79.7441C328.355 80.4928 327.756 81.056 326.955 81.4336C326.154 81.8112 325.152 82 323.947 82H320.803ZM319.455 82V67.8008H320.861V82H319.455ZM339.621 67.8008V68.9922L335.949 82H334.416L338.156 69.1094H333.303V71.7363H331.896V67.8008H339.621ZM342.658 82V67.8008H344.064V82H342.658ZM343.625 82V80.6914H351.779V82H343.625ZM343.625 75.6035V74.2949H350.705V75.6035H343.625ZM343.625 69.1094V67.8008H351.779V69.1094H343.625ZM354.123 79.8223V78.6797L358.889 67.8105H360.354L355.705 78.5625H363.254V79.8223H354.123ZM360.539 82.0098V73.6504H361.896V82.0098H360.539ZM369.865 82.1465C368.954 82.1465 368.176 81.9935 367.531 81.6875C366.893 81.3815 366.405 80.9388 366.066 80.3594C365.728 79.7799 365.559 79.0768 365.559 78.25V78.1133C365.559 77.3581 365.728 76.681 366.066 76.082C366.411 75.4831 366.893 75.0143 367.512 74.6758C366.984 74.3568 366.574 73.9271 366.281 73.3867C365.995 72.8464 365.852 72.2441 365.852 71.5801V71.4336C365.852 70.2292 366.2 69.2982 366.896 68.6406C367.6 67.9831 368.589 67.6543 369.865 67.6543C371.141 67.6543 372.128 67.9831 372.824 68.6406C373.527 69.2982 373.879 70.2292 373.879 71.4336V71.5801C373.879 72.2637 373.732 72.8757 373.439 73.416C373.146 73.9499 372.73 74.3698 372.189 74.6758C372.821 75.0143 373.309 75.4831 373.654 76.082C373.999 76.681 374.172 77.3581 374.172 78.1133V78.25C374.172 79.0768 374.003 79.7799 373.664 80.3594C373.326 80.9388 372.834 81.3815 372.189 81.6875C371.551 81.9935 370.777 82.1465 369.865 82.1465ZM369.865 80.8672C370.777 80.8672 371.48 80.6328 371.975 80.1641C372.476 79.6888 372.727 79.0182 372.727 78.1523V78.1133C372.727 77.2474 372.476 76.5768 371.975 76.1016C371.48 75.6263 370.777 75.3887 369.865 75.3887C368.96 75.3887 368.257 75.6263 367.756 76.1016C367.255 76.5768 367.004 77.2507 367.004 78.123V78.1719C367.004 79.0247 367.255 79.6888 367.756 80.1641C368.257 80.6328 368.96 80.8672 369.865 80.8672ZM369.865 74.1582C370.712 74.1582 371.366 73.9303 371.828 73.4746C372.29 73.0124 372.521 72.3613 372.521 71.5215V71.3848C372.521 70.6035 372.29 70.0013 371.828 69.5781C371.366 69.1484 370.712 68.9336 369.865 68.9336C369.019 68.9336 368.365 69.1484 367.902 69.5781C367.44 70.0078 367.209 70.6133 367.209 71.3945V71.541C367.209 72.3678 367.44 73.0124 367.902 73.4746C368.365 73.9303 369.019 74.1582 369.865 74.1582Z" fill="black"/>
<path d="M309.727 232V217.801H311.133V232H309.727ZM310.703 225.73V224.422H317.588V225.73H310.703ZM310.703 219.109V217.801H318.662V219.109H310.703ZM321.113 232V217.801H322.52V232H321.113ZM322.09 225.73V224.422H328.975V225.73H322.09ZM322.09 219.109V217.801H330.049V219.109H322.09ZM331.816 229.822V228.68L336.582 217.811H338.047L333.398 228.562H340.947V229.822H331.816ZM338.232 232.01V223.65H339.59V232.01H338.232ZM345.039 232V230.691H348.252C349.567 230.691 350.55 230.385 351.201 229.773C351.859 229.155 352.188 228.227 352.188 226.99V222.811C352.188 221.574 351.859 220.649 351.201 220.037C350.55 219.419 349.567 219.109 348.252 219.109H345.039V217.801H348.193C350.003 217.801 351.354 218.224 352.246 219.07C353.145 219.917 353.594 221.189 353.594 222.889V226.912C353.594 228.045 353.392 228.989 352.988 229.744C352.591 230.493 351.992 231.056 351.191 231.434C350.391 231.811 349.388 232 348.184 232H345.039ZM343.691 232V217.801H345.098V232H343.691ZM356.328 229.822V228.68L361.094 217.811H362.559L357.91 228.562H365.459V229.822H356.328ZM362.744 232.01V223.65H364.102V232.01H362.744ZM371.582 232.146C370.781 232.146 370.078 232.007 369.473 231.727C368.874 231.447 368.392 231.04 368.027 230.506C367.663 229.972 367.428 229.324 367.324 228.562H368.74C368.857 229.279 369.163 229.835 369.658 230.232C370.153 230.623 370.794 230.818 371.582 230.818C372.435 230.818 373.092 230.594 373.555 230.145C374.017 229.689 374.248 229.048 374.248 228.221V227.791C374.248 226.99 374.023 226.372 373.574 225.936C373.125 225.493 372.493 225.271 371.68 225.271H370.674V223.963H371.68C372.422 223.963 372.995 223.771 373.398 223.387C373.809 223.003 374.014 222.462 374.014 221.766V221.326C374.014 220.577 373.799 220.001 373.369 219.598C372.946 219.188 372.347 218.982 371.572 218.982C370.915 218.982 370.358 219.171 369.902 219.549C369.447 219.92 369.134 220.447 368.965 221.131H367.559C367.76 220.024 368.21 219.168 368.906 218.562C369.609 217.957 370.498 217.654 371.572 217.654C372.796 217.654 373.743 217.977 374.414 218.621C375.085 219.266 375.42 220.174 375.42 221.346V221.775C375.42 222.439 375.26 223.019 374.941 223.514C374.629 224.002 374.183 224.36 373.604 224.588C374.255 224.744 374.759 225.102 375.117 225.662C375.475 226.222 375.654 226.935 375.654 227.801V228.23C375.654 229.474 375.299 230.438 374.59 231.121C373.88 231.805 372.878 232.146 371.582 232.146Z" fill="black"/>
<path d="M311.006 307V292.801H312.412V307H311.006ZM311.982 300.73V299.422H318.867V300.73H311.982ZM311.982 294.109V292.801H319.941V294.109H311.982ZM322.393 307V292.801H323.799V307H322.393ZM323.359 307V305.691H331.514V307H323.359ZM323.359 300.604V299.295H330.439V300.604H323.359ZM323.359 294.109V292.801H331.514V294.109H323.359ZM335.693 307V305.691H338.906C340.221 305.691 341.204 305.385 341.855 304.773C342.513 304.155 342.842 303.227 342.842 301.99V297.811C342.842 296.574 342.513 295.649 341.855 295.037C341.204 294.419 340.221 294.109 338.906 294.109H335.693V292.801H338.848C340.658 292.801 342.008 293.224 342.9 294.07C343.799 294.917 344.248 296.189 344.248 297.889V301.912C344.248 303.045 344.046 303.989 343.643 304.744C343.245 305.493 342.646 306.056 341.846 306.434C341.045 306.811 340.042 307 338.838 307H335.693ZM334.346 307V292.801H335.752V307H334.346ZM347.275 307V292.801H348.682V307H347.275ZM348.252 300.73V299.422H355.137V300.73H348.252ZM348.252 294.109V292.801H356.211V294.109H348.252ZM363.115 307.146C362.126 307.146 361.26 306.928 360.518 306.492C359.775 306.049 359.199 305.431 358.789 304.637C358.379 303.842 358.174 302.915 358.174 301.854V297.957C358.174 296.889 358.379 295.958 358.789 295.164C359.199 294.37 359.775 293.755 360.518 293.318C361.26 292.876 362.126 292.654 363.115 292.654C363.936 292.654 364.684 292.824 365.361 293.162C366.045 293.494 366.615 293.963 367.07 294.568C367.533 295.167 367.845 295.87 368.008 296.678H366.602C366.445 296.131 366.188 295.656 365.83 295.252C365.472 294.842 365.055 294.526 364.58 294.305C364.111 294.077 363.623 293.963 363.115 293.963C362.054 293.963 361.198 294.327 360.547 295.057C359.902 295.786 359.58 296.753 359.58 297.957V301.854C359.58 303.051 359.902 304.015 360.547 304.744C361.198 305.473 362.054 305.838 363.115 305.838C363.87 305.838 364.58 305.604 365.244 305.135C365.908 304.66 366.361 303.989 366.602 303.123H368.008C367.845 303.93 367.533 304.637 367.07 305.242C366.608 305.841 366.038 306.31 365.361 306.648C364.684 306.98 363.936 307.146 363.115 307.146ZM373.984 292.801V307H372.578V293.992L369.971 295.623V294.148L371.992 292.801H373.984Z" fill="black"/>
<path d="M311.816 382V367.801H313.223V382H311.816ZM312.793 375.73V374.422H319.678V375.73H312.793ZM312.793 369.109V367.801H320.752V369.109H312.793ZM323.203 382V367.801H324.609V382H323.203ZM324.18 375.73V374.422H331.064V375.73H324.18ZM324.18 369.109V367.801H332.139V369.109H324.18ZM341.436 367.801V368.992L337.764 382H336.23L339.971 369.109H335.117V371.736H333.711V367.801H341.436ZM348.34 382.146C347.428 382.146 346.65 381.993 346.006 381.688C345.368 381.382 344.88 380.939 344.541 380.359C344.202 379.78 344.033 379.077 344.033 378.25V378.113C344.033 377.358 344.202 376.681 344.541 376.082C344.886 375.483 345.368 375.014 345.986 374.676C345.459 374.357 345.049 373.927 344.756 373.387C344.469 372.846 344.326 372.244 344.326 371.58V371.434C344.326 370.229 344.674 369.298 345.371 368.641C346.074 367.983 347.064 367.654 348.34 367.654C349.616 367.654 350.602 367.983 351.299 368.641C352.002 369.298 352.354 370.229 352.354 371.434V371.58C352.354 372.264 352.207 372.876 351.914 373.416C351.621 373.95 351.204 374.37 350.664 374.676C351.296 375.014 351.784 375.483 352.129 376.082C352.474 376.681 352.646 377.358 352.646 378.113V378.25C352.646 379.077 352.477 379.78 352.139 380.359C351.8 380.939 351.309 381.382 350.664 381.688C350.026 381.993 349.251 382.146 348.34 382.146ZM348.34 380.867C349.251 380.867 349.954 380.633 350.449 380.164C350.951 379.689 351.201 379.018 351.201 378.152V378.113C351.201 377.247 350.951 376.577 350.449 376.102C349.954 375.626 349.251 375.389 348.34 375.389C347.435 375.389 346.732 375.626 346.23 376.102C345.729 376.577 345.479 377.251 345.479 378.123V378.172C345.479 379.025 345.729 379.689 346.23 380.164C346.732 380.633 347.435 380.867 348.34 380.867ZM348.34 374.158C349.186 374.158 349.84 373.93 350.303 373.475C350.765 373.012 350.996 372.361 350.996 371.521V371.385C350.996 370.604 350.765 370.001 350.303 369.578C349.84 369.148 349.186 368.934 348.34 368.934C347.493 368.934 346.839 369.148 346.377 369.578C345.915 370.008 345.684 370.613 345.684 371.395V371.541C345.684 372.368 345.915 373.012 346.377 373.475C346.839 373.93 347.493 374.158 348.34 374.158ZM362.764 367.801V368.992L359.092 382H357.559L361.299 369.109H356.445V371.736H355.039V367.801H362.764ZM369.473 382.146C368.392 382.146 367.503 381.837 366.807 381.219C366.117 380.594 365.684 379.715 365.508 378.582V378.572H366.914V378.582C367.005 379.292 367.272 379.842 367.715 380.232C368.164 380.623 368.75 380.818 369.473 380.818C370.293 380.818 370.928 380.59 371.377 380.135C371.833 379.673 372.061 379.021 372.061 378.182V376.111C372.061 375.304 371.868 374.682 371.484 374.246C371.1 373.803 370.56 373.582 369.863 373.582C369.29 373.582 368.77 373.732 368.301 374.031C367.839 374.324 367.422 374.741 367.051 375.281H365.82V367.801H373.057V369.109H367.227V373.377C367.591 373.019 367.992 372.742 368.428 372.547C368.864 372.352 369.346 372.254 369.873 372.254C371.019 372.254 371.904 372.592 372.529 373.27C373.154 373.94 373.467 374.887 373.467 376.111V378.182C373.467 379.438 373.118 380.415 372.422 381.111C371.725 381.801 370.742 382.146 369.473 382.146Z" fill="black"/>
<circle cx="43" cy="76" r="30" fill="#F4B801"/>
<circle cx="43" cy="151" r="30" fill="white"/>
<circle cx="43" cy="226" r="30" fill="#0C098C"/>
<circle cx="44" cy="301" r="30" fill="#FAFAFA"/>
<circle cx="44" cy="376" r="30" fill="#FFEBAE"/>
<circle cx="261" cy="151" r="30" fill="#73B40D"/>
<circle cx="261" cy="226" r="30" fill="#FF4D43"/>
<circle cx="261" cy="301" r="30" fill="#FEDFC1"/>
<circle cx="261" cy="376" r="30" fill="#FF7875"/>
<circle cx="261" cy="76" r="30" fill="#CD7E48"/>
</svg>
